<mxfile host="app.diagrams.net" modified="2024-05-18T01:52:56.100Z" agent="Mozilla/5.0 (Windows NT 10.0; Win64; x64) AppleWebKit/537.36 (KHTML, like Gecko) Chrome/125.0.0.0 Safari/537.36" etag="JD5a7tFnedvJ_i71ZWYW" version="24.4.4" type="github">
  <diagram id="prtHgNgQTEPvFCAcTncT" name="Page-1">
    <mxGraphModel dx="1050" dy="626" grid="1" gridSize="10" guides="1" tooltips="1" connect="1" arrows="1" fold="1" page="1" pageScale="1" pageWidth="850" pageHeight="1100" math="0" shadow="0">
      <root>
        <mxCell id="0" />
        <mxCell id="1" parent="0" />
        <mxCell id="grCo7hTmxgtoTyHtFjDK-1" value="1. Mejora del area Informatica&lt;div&gt;6 meses 15 dias&lt;/div&gt;&lt;div&gt;01/06/2024 - 15/12/2024&lt;/div&gt;" style="rounded=0;whiteSpace=wrap;html=1;fillColor=#182E3E;strokeColor=#FFFFFF;fontColor=#FFFFFF;labelBackgroundColor=none;" parent="1" vertex="1">
          <mxGeometry x="365" width="120" height="100" as="geometry" />
        </mxCell>
        <mxCell id="grCo7hTmxgtoTyHtFjDK-51" value="" style="edgeStyle=orthogonalEdgeStyle;rounded=0;orthogonalLoop=1;jettySize=auto;html=1;labelBackgroundColor=none;strokeColor=#23445D;fontColor=default;" parent="1" source="grCo7hTmxgtoTyHtFjDK-2" target="grCo7hTmxgtoTyHtFjDK-23" edge="1">
          <mxGeometry relative="1" as="geometry" />
        </mxCell>
        <mxCell id="grCo7hTmxgtoTyHtFjDK-2" value="7. Adquisicion de personal&lt;div&gt;30 Dias&lt;/div&gt;&lt;div&gt;01-30/062024&lt;/div&gt;" style="rounded=0;whiteSpace=wrap;html=1;fillColor=#182E3E;strokeColor=#FFFFFF;fontColor=#FFFFFF;labelBackgroundColor=none;" parent="1" vertex="1">
          <mxGeometry x="210" y="160" width="120" height="70" as="geometry" />
        </mxCell>
        <mxCell id="grCo7hTmxgtoTyHtFjDK-63" value="" style="edgeStyle=orthogonalEdgeStyle;rounded=0;orthogonalLoop=1;jettySize=auto;html=1;labelBackgroundColor=none;strokeColor=#23445D;fontColor=default;" parent="1" source="grCo7hTmxgtoTyHtFjDK-3" target="grCo7hTmxgtoTyHtFjDK-26" edge="1">
          <mxGeometry relative="1" as="geometry" />
        </mxCell>
        <mxCell id="grCo7hTmxgtoTyHtFjDK-3" value="16. Implantacion de mejoras" style="rounded=0;whiteSpace=wrap;html=1;fillColor=#182E3E;strokeColor=#FFFFFF;fontColor=#FFFFFF;labelBackgroundColor=none;" parent="1" vertex="1">
          <mxGeometry x="530" y="160" width="120" height="70" as="geometry" />
        </mxCell>
        <mxCell id="grCo7hTmxgtoTyHtFjDK-68" value="" style="edgeStyle=orthogonalEdgeStyle;rounded=0;orthogonalLoop=1;jettySize=auto;html=1;labelBackgroundColor=none;strokeColor=#23445D;fontColor=default;" parent="1" source="grCo7hTmxgtoTyHtFjDK-4" target="grCo7hTmxgtoTyHtFjDK-36" edge="1">
          <mxGeometry relative="1" as="geometry" />
        </mxCell>
        <mxCell id="grCo7hTmxgtoTyHtFjDK-4" value="22. Implementacion de controles internos" style="rounded=0;whiteSpace=wrap;html=1;fillColor=#182E3E;strokeColor=#FFFFFF;fontColor=#FFFFFF;labelBackgroundColor=none;" parent="1" vertex="1">
          <mxGeometry x="700" y="160" width="120" height="70" as="geometry" />
        </mxCell>
        <mxCell id="grCo7hTmxgtoTyHtFjDK-55" value="" style="edgeStyle=orthogonalEdgeStyle;rounded=0;orthogonalLoop=1;jettySize=auto;html=1;labelBackgroundColor=none;strokeColor=#23445D;fontColor=default;" parent="1" source="grCo7hTmxgtoTyHtFjDK-5" target="grCo7hTmxgtoTyHtFjDK-15" edge="1">
          <mxGeometry relative="1" as="geometry" />
        </mxCell>
        <mxCell id="grCo7hTmxgtoTyHtFjDK-5" value="&lt;div&gt;&lt;span style=&quot;background-color: initial;&quot;&gt;2. Administracion del proyecto&lt;/span&gt;&lt;br&gt;&lt;/div&gt;&lt;div&gt;&lt;br&gt;&lt;/div&gt;" style="rounded=0;whiteSpace=wrap;html=1;fillColor=#182E3E;strokeColor=#FFFFFF;fontColor=#FFFFFF;labelBackgroundColor=none;" parent="1" vertex="1">
          <mxGeometry x="40" y="160" width="120" height="70" as="geometry" />
        </mxCell>
        <mxCell id="grCo7hTmxgtoTyHtFjDK-6" value="" style="endArrow=none;html=1;rounded=0;entryX=0.5;entryY=1;entryDx=0;entryDy=0;labelBackgroundColor=none;strokeColor=#23445D;fontColor=default;" parent="1" target="grCo7hTmxgtoTyHtFjDK-1" edge="1">
          <mxGeometry width="50" height="50" relative="1" as="geometry">
            <mxPoint x="425" y="120" as="sourcePoint" />
            <mxPoint x="190" y="70" as="targetPoint" />
          </mxGeometry>
        </mxCell>
        <mxCell id="grCo7hTmxgtoTyHtFjDK-7" value="" style="endArrow=none;html=1;rounded=0;labelBackgroundColor=none;strokeColor=#23445D;fontColor=default;" parent="1" target="grCo7hTmxgtoTyHtFjDK-4" edge="1">
          <mxGeometry width="50" height="50" relative="1" as="geometry">
            <mxPoint x="760" y="120" as="sourcePoint" />
            <mxPoint x="130" y="60" as="targetPoint" />
          </mxGeometry>
        </mxCell>
        <mxCell id="grCo7hTmxgtoTyHtFjDK-8" value="" style="endArrow=none;html=1;rounded=0;exitX=0.5;exitY=0;exitDx=0;exitDy=0;labelBackgroundColor=none;strokeColor=#23445D;fontColor=default;" parent="1" source="grCo7hTmxgtoTyHtFjDK-3" edge="1">
          <mxGeometry width="50" height="50" relative="1" as="geometry">
            <mxPoint x="90" y="120" as="sourcePoint" />
            <mxPoint x="590" y="120" as="targetPoint" />
          </mxGeometry>
        </mxCell>
        <mxCell id="grCo7hTmxgtoTyHtFjDK-9" value="" style="endArrow=none;html=1;rounded=0;exitX=0.5;exitY=0;exitDx=0;exitDy=0;labelBackgroundColor=none;strokeColor=#23445D;fontColor=default;" parent="1" source="grCo7hTmxgtoTyHtFjDK-2" edge="1">
          <mxGeometry width="50" height="50" relative="1" as="geometry">
            <mxPoint x="100" y="130" as="sourcePoint" />
            <mxPoint x="270" y="120" as="targetPoint" />
          </mxGeometry>
        </mxCell>
        <mxCell id="grCo7hTmxgtoTyHtFjDK-10" value="" style="endArrow=none;html=1;rounded=0;exitX=0.5;exitY=0;exitDx=0;exitDy=0;labelBackgroundColor=none;strokeColor=#23445D;fontColor=default;" parent="1" source="grCo7hTmxgtoTyHtFjDK-5" edge="1">
          <mxGeometry width="50" height="50" relative="1" as="geometry">
            <mxPoint x="110" y="140" as="sourcePoint" />
            <mxPoint x="100" y="120" as="targetPoint" />
          </mxGeometry>
        </mxCell>
        <mxCell id="grCo7hTmxgtoTyHtFjDK-11" value="" style="endArrow=none;html=1;rounded=0;labelBackgroundColor=none;strokeColor=#23445D;fontColor=default;" parent="1" edge="1">
          <mxGeometry width="50" height="50" relative="1" as="geometry">
            <mxPoint x="100" y="120" as="sourcePoint" />
            <mxPoint x="760" y="120" as="targetPoint" />
          </mxGeometry>
        </mxCell>
        <mxCell id="grCo7hTmxgtoTyHtFjDK-56" value="" style="edgeStyle=orthogonalEdgeStyle;rounded=0;orthogonalLoop=1;jettySize=auto;html=1;strokeColor=#23445D;labelBackgroundColor=none;fontColor=default;" parent="1" source="grCo7hTmxgtoTyHtFjDK-15" target="grCo7hTmxgtoTyHtFjDK-16" edge="1">
          <mxGeometry relative="1" as="geometry" />
        </mxCell>
        <mxCell id="grCo7hTmxgtoTyHtFjDK-15" value="3. Iniciacion" style="rounded=0;whiteSpace=wrap;html=1;fillColor=#182E3E;fontColor=#FFFFFF;strokeColor=#FFFFFF;labelBackgroundColor=none;" parent="1" vertex="1">
          <mxGeometry x="40" y="270" width="120" height="60" as="geometry" />
        </mxCell>
        <mxCell id="grCo7hTmxgtoTyHtFjDK-57" value="" style="edgeStyle=orthogonalEdgeStyle;rounded=0;orthogonalLoop=1;jettySize=auto;html=1;strokeColor=#23445D;labelBackgroundColor=none;fontColor=default;" parent="1" source="grCo7hTmxgtoTyHtFjDK-16" target="grCo7hTmxgtoTyHtFjDK-17" edge="1">
          <mxGeometry relative="1" as="geometry" />
        </mxCell>
        <mxCell id="grCo7hTmxgtoTyHtFjDK-16" value="4. Planificacion" style="rounded=0;whiteSpace=wrap;html=1;fillColor=#182E3E;fontColor=#FFFFFF;strokeColor=#FFFFFF;labelBackgroundColor=none;" parent="1" vertex="1">
          <mxGeometry x="40" y="380" width="120" height="60" as="geometry" />
        </mxCell>
        <mxCell id="grCo7hTmxgtoTyHtFjDK-58" value="" style="edgeStyle=orthogonalEdgeStyle;rounded=0;orthogonalLoop=1;jettySize=auto;html=1;strokeColor=#23445D;labelBackgroundColor=none;fontColor=default;" parent="1" source="grCo7hTmxgtoTyHtFjDK-17" target="grCo7hTmxgtoTyHtFjDK-18" edge="1">
          <mxGeometry relative="1" as="geometry" />
        </mxCell>
        <mxCell id="grCo7hTmxgtoTyHtFjDK-17" value="5. Control" style="rounded=0;whiteSpace=wrap;html=1;fillColor=#182E3E;fontColor=#FFFFFF;strokeColor=#FFFFFF;labelBackgroundColor=none;" parent="1" vertex="1">
          <mxGeometry x="40" y="490" width="120" height="60" as="geometry" />
        </mxCell>
        <mxCell id="grCo7hTmxgtoTyHtFjDK-18" value="6. Cierre" style="rounded=0;whiteSpace=wrap;html=1;fillColor=#182E3E;fontColor=#FFFFFF;strokeColor=#FFFFFF;labelBackgroundColor=none;" parent="1" vertex="1">
          <mxGeometry x="40" y="600" width="120" height="60" as="geometry" />
        </mxCell>
        <mxCell id="grCo7hTmxgtoTyHtFjDK-52" value="" style="edgeStyle=orthogonalEdgeStyle;rounded=0;orthogonalLoop=1;jettySize=auto;html=1;strokeColor=#23445D;labelBackgroundColor=none;fontColor=default;" parent="1" source="grCo7hTmxgtoTyHtFjDK-23" target="grCo7hTmxgtoTyHtFjDK-24" edge="1">
          <mxGeometry relative="1" as="geometry" />
        </mxCell>
        <mxCell id="grCo7hTmxgtoTyHtFjDK-23" value="8. Listar el personal necesario&lt;div&gt;&lt;br&gt;&lt;/div&gt;" style="rounded=0;whiteSpace=wrap;html=1;fillColor=#182E3E;fontColor=#FFFFFF;strokeColor=#FFFFFF;labelBackgroundColor=none;" parent="1" vertex="1">
          <mxGeometry x="210" y="270" width="120" height="60" as="geometry" />
        </mxCell>
        <mxCell id="grCo7hTmxgtoTyHtFjDK-53" value="" style="edgeStyle=orthogonalEdgeStyle;rounded=0;orthogonalLoop=1;jettySize=auto;html=1;strokeColor=#23445D;labelBackgroundColor=none;fontColor=default;" parent="1" source="grCo7hTmxgtoTyHtFjDK-24" target="grCo7hTmxgtoTyHtFjDK-25" edge="1">
          <mxGeometry relative="1" as="geometry" />
        </mxCell>
        <mxCell id="grCo7hTmxgtoTyHtFjDK-24" value="9. Listar requisitos los puestos" style="rounded=0;whiteSpace=wrap;html=1;fillColor=#182E3E;fontColor=#FFFFFF;strokeColor=#FFFFFF;labelBackgroundColor=none;" parent="1" vertex="1">
          <mxGeometry x="210" y="380" width="120" height="60" as="geometry" />
        </mxCell>
        <mxCell id="grCo7hTmxgtoTyHtFjDK-54" value="" style="edgeStyle=orthogonalEdgeStyle;rounded=0;orthogonalLoop=1;jettySize=auto;html=1;strokeColor=#23445D;labelBackgroundColor=none;fontColor=default;" parent="1" source="grCo7hTmxgtoTyHtFjDK-25" target="grCo7hTmxgtoTyHtFjDK-43" edge="1">
          <mxGeometry relative="1" as="geometry" />
        </mxCell>
        <mxCell id="grCo7hTmxgtoTyHtFjDK-25" value="10. Adquision del personal" style="rounded=0;whiteSpace=wrap;html=1;fillColor=#182E3E;fontColor=#FFFFFF;strokeColor=#FFFFFF;labelBackgroundColor=none;" parent="1" vertex="1">
          <mxGeometry x="210" y="490" width="120" height="60" as="geometry" />
        </mxCell>
        <mxCell id="grCo7hTmxgtoTyHtFjDK-64" value="" style="edgeStyle=orthogonalEdgeStyle;rounded=0;orthogonalLoop=1;jettySize=auto;html=1;strokeColor=#23445D;labelBackgroundColor=none;fontColor=default;" parent="1" source="grCo7hTmxgtoTyHtFjDK-26" target="grCo7hTmxgtoTyHtFjDK-29" edge="1">
          <mxGeometry relative="1" as="geometry" />
        </mxCell>
        <mxCell id="grCo7hTmxgtoTyHtFjDK-26" value="17. Condicionar area informatica" style="rounded=0;whiteSpace=wrap;html=1;fillColor=#182E3E;fontColor=#FFFFFF;strokeColor=#FFFFFF;labelBackgroundColor=none;" parent="1" vertex="1">
          <mxGeometry x="530" y="270" width="120" height="60" as="geometry" />
        </mxCell>
        <mxCell id="grCo7hTmxgtoTyHtFjDK-65" value="" style="edgeStyle=orthogonalEdgeStyle;rounded=0;orthogonalLoop=1;jettySize=auto;html=1;strokeColor=#23445D;labelBackgroundColor=none;fontColor=default;" parent="1" source="grCo7hTmxgtoTyHtFjDK-29" target="grCo7hTmxgtoTyHtFjDK-30" edge="1">
          <mxGeometry relative="1" as="geometry" />
        </mxCell>
        <mxCell id="grCo7hTmxgtoTyHtFjDK-29" value="18. Listar material adquirido" style="rounded=0;whiteSpace=wrap;html=1;fillColor=#182E3E;fontColor=#FFFFFF;strokeColor=#FFFFFF;labelBackgroundColor=none;" parent="1" vertex="1">
          <mxGeometry x="530" y="380" width="120" height="60" as="geometry" />
        </mxCell>
        <mxCell id="grCo7hTmxgtoTyHtFjDK-66" value="" style="edgeStyle=orthogonalEdgeStyle;rounded=0;orthogonalLoop=1;jettySize=auto;html=1;strokeColor=#23445D;labelBackgroundColor=none;fontColor=default;" parent="1" source="grCo7hTmxgtoTyHtFjDK-30" target="grCo7hTmxgtoTyHtFjDK-31" edge="1">
          <mxGeometry relative="1" as="geometry" />
        </mxCell>
        <mxCell id="grCo7hTmxgtoTyHtFjDK-30" value="19. Etiquetar/Sellar materiales" style="rounded=0;whiteSpace=wrap;html=1;fillColor=#182E3E;fontColor=#FFFFFF;strokeColor=#FFFFFF;labelBackgroundColor=none;" parent="1" vertex="1">
          <mxGeometry x="530" y="490" width="120" height="60" as="geometry" />
        </mxCell>
        <mxCell id="grCo7hTmxgtoTyHtFjDK-67" value="" style="edgeStyle=orthogonalEdgeStyle;rounded=0;orthogonalLoop=1;jettySize=auto;html=1;strokeColor=#23445D;labelBackgroundColor=none;fontColor=default;" parent="1" source="grCo7hTmxgtoTyHtFjDK-31" target="grCo7hTmxgtoTyHtFjDK-32" edge="1">
          <mxGeometry relative="1" as="geometry" />
        </mxCell>
        <mxCell id="grCo7hTmxgtoTyHtFjDK-31" value="20. Distribuir materiales" style="rounded=0;whiteSpace=wrap;html=1;fillColor=#182E3E;fontColor=#FFFFFF;strokeColor=#FFFFFF;labelBackgroundColor=none;" parent="1" vertex="1">
          <mxGeometry x="530" y="600" width="120" height="60" as="geometry" />
        </mxCell>
        <mxCell id="grCo7hTmxgtoTyHtFjDK-32" value="21. Instalar Materiales" style="rounded=0;whiteSpace=wrap;html=1;fillColor=#182E3E;fontColor=#FFFFFF;strokeColor=#FFFFFF;labelBackgroundColor=none;" parent="1" vertex="1">
          <mxGeometry x="530" y="710" width="120" height="60" as="geometry" />
        </mxCell>
        <mxCell id="grCo7hTmxgtoTyHtFjDK-69" value="" style="edgeStyle=orthogonalEdgeStyle;rounded=0;orthogonalLoop=1;jettySize=auto;html=1;strokeColor=#23445D;labelBackgroundColor=none;fontColor=default;" parent="1" source="grCo7hTmxgtoTyHtFjDK-36" target="grCo7hTmxgtoTyHtFjDK-37" edge="1">
          <mxGeometry relative="1" as="geometry" />
        </mxCell>
        <mxCell id="grCo7hTmxgtoTyHtFjDK-36" value="23. Identificar objetivos" style="rounded=0;whiteSpace=wrap;html=1;fillColor=#182E3E;fontColor=#FFFFFF;strokeColor=#FFFFFF;labelBackgroundColor=none;" parent="1" vertex="1">
          <mxGeometry x="700" y="270" width="120" height="60" as="geometry" />
        </mxCell>
        <mxCell id="grCo7hTmxgtoTyHtFjDK-70" value="" style="edgeStyle=orthogonalEdgeStyle;rounded=0;orthogonalLoop=1;jettySize=auto;html=1;strokeColor=#23445D;labelBackgroundColor=none;fontColor=default;" parent="1" source="grCo7hTmxgtoTyHtFjDK-37" target="grCo7hTmxgtoTyHtFjDK-38" edge="1">
          <mxGeometry relative="1" as="geometry" />
        </mxCell>
        <mxCell id="grCo7hTmxgtoTyHtFjDK-37" value="24. Analisar requerimientos" style="rounded=0;whiteSpace=wrap;html=1;fillColor=#182E3E;fontColor=#FFFFFF;strokeColor=#FFFFFF;labelBackgroundColor=none;" parent="1" vertex="1">
          <mxGeometry x="700" y="380" width="120" height="60" as="geometry" />
        </mxCell>
        <mxCell id="grCo7hTmxgtoTyHtFjDK-71" value="" style="edgeStyle=orthogonalEdgeStyle;rounded=0;orthogonalLoop=1;jettySize=auto;html=1;strokeColor=#23445D;labelBackgroundColor=none;fontColor=default;" parent="1" source="grCo7hTmxgtoTyHtFjDK-38" target="grCo7hTmxgtoTyHtFjDK-39" edge="1">
          <mxGeometry relative="1" as="geometry" />
        </mxCell>
        <mxCell id="grCo7hTmxgtoTyHtFjDK-38" value="25. Redactar controles" style="rounded=0;whiteSpace=wrap;html=1;fillColor=#182E3E;fontColor=#FFFFFF;strokeColor=#FFFFFF;labelBackgroundColor=none;" parent="1" vertex="1">
          <mxGeometry x="700" y="490" width="120" height="60" as="geometry" />
        </mxCell>
        <mxCell id="grCo7hTmxgtoTyHtFjDK-76" value="" style="edgeStyle=orthogonalEdgeStyle;rounded=0;orthogonalLoop=1;jettySize=auto;html=1;labelBackgroundColor=none;strokeColor=#23445D;fontColor=default;" parent="1" source="grCo7hTmxgtoTyHtFjDK-39" target="grCo7hTmxgtoTyHtFjDK-74" edge="1">
          <mxGeometry relative="1" as="geometry" />
        </mxCell>
        <mxCell id="grCo7hTmxgtoTyHtFjDK-39" value="26. Implementar controles" style="rounded=0;whiteSpace=wrap;html=1;fillColor=#182E3E;fontColor=#FFFFFF;strokeColor=#FFFFFF;labelBackgroundColor=none;" parent="1" vertex="1">
          <mxGeometry x="700" y="600" width="120" height="60" as="geometry" />
        </mxCell>
        <mxCell id="grCo7hTmxgtoTyHtFjDK-43" value="11. Capacitacion del personal&lt;div&gt;7 Dias&lt;/div&gt;" style="rounded=0;whiteSpace=wrap;html=1;fillColor=#182E3E;fontColor=#FFFFFF;strokeColor=#FFFFFF;labelBackgroundColor=none;" parent="1" vertex="1">
          <mxGeometry x="210" y="600" width="120" height="60" as="geometry" />
        </mxCell>
        <mxCell id="grCo7hTmxgtoTyHtFjDK-59" value="" style="edgeStyle=orthogonalEdgeStyle;rounded=0;orthogonalLoop=1;jettySize=auto;html=1;labelBackgroundColor=none;strokeColor=#23445D;fontColor=default;" parent="1" source="grCo7hTmxgtoTyHtFjDK-44" target="grCo7hTmxgtoTyHtFjDK-45" edge="1">
          <mxGeometry relative="1" as="geometry" />
        </mxCell>
        <mxCell id="grCo7hTmxgtoTyHtFjDK-44" value="12. Adquisicion de mejoras" style="rounded=0;whiteSpace=wrap;html=1;fillColor=#182E3E;strokeColor=#FFFFFF;fontColor=#FFFFFF;labelBackgroundColor=none;" parent="1" vertex="1">
          <mxGeometry x="370" y="160" width="120" height="70" as="geometry" />
        </mxCell>
        <mxCell id="grCo7hTmxgtoTyHtFjDK-60" value="" style="edgeStyle=orthogonalEdgeStyle;rounded=0;orthogonalLoop=1;jettySize=auto;html=1;strokeColor=#23445D;labelBackgroundColor=none;fontColor=default;" parent="1" source="grCo7hTmxgtoTyHtFjDK-45" target="grCo7hTmxgtoTyHtFjDK-46" edge="1">
          <mxGeometry relative="1" as="geometry" />
        </mxCell>
        <mxCell id="grCo7hTmxgtoTyHtFjDK-45" value="13. Auditar area de informatica" style="rounded=0;whiteSpace=wrap;html=1;fillColor=#182E3E;fontColor=#FFFFFF;strokeColor=#FFFFFF;labelBackgroundColor=none;" parent="1" vertex="1">
          <mxGeometry x="370" y="270" width="120" height="60" as="geometry" />
        </mxCell>
        <mxCell id="grCo7hTmxgtoTyHtFjDK-61" value="" style="edgeStyle=orthogonalEdgeStyle;rounded=0;orthogonalLoop=1;jettySize=auto;html=1;strokeColor=#23445D;labelBackgroundColor=none;fontColor=default;" parent="1" source="grCo7hTmxgtoTyHtFjDK-46" target="grCo7hTmxgtoTyHtFjDK-47" edge="1">
          <mxGeometry relative="1" as="geometry" />
        </mxCell>
        <mxCell id="grCo7hTmxgtoTyHtFjDK-46" value="14. Listar material a conseguir (software, hardware, inmuebles)" style="rounded=0;whiteSpace=wrap;html=1;fillColor=#182E3E;fontColor=#FFFFFF;strokeColor=#FFFFFF;labelBackgroundColor=none;" parent="1" vertex="1">
          <mxGeometry x="370" y="380" width="120" height="60" as="geometry" />
        </mxCell>
        <mxCell id="grCo7hTmxgtoTyHtFjDK-47" value="15. Adquirir material" style="rounded=0;whiteSpace=wrap;html=1;fillColor=#182E3E;fontColor=#FFFFFF;strokeColor=#FFFFFF;labelBackgroundColor=none;" parent="1" vertex="1">
          <mxGeometry x="370" y="490" width="120" height="60" as="geometry" />
        </mxCell>
        <mxCell id="grCo7hTmxgtoTyHtFjDK-49" value="" style="endArrow=none;html=1;rounded=0;exitX=0.5;exitY=0;exitDx=0;exitDy=0;labelBackgroundColor=none;strokeColor=#23445D;fontColor=default;" parent="1" source="grCo7hTmxgtoTyHtFjDK-44" edge="1">
          <mxGeometry width="50" height="50" relative="1" as="geometry">
            <mxPoint x="480" y="390" as="sourcePoint" />
            <mxPoint x="430" y="120" as="targetPoint" />
          </mxGeometry>
        </mxCell>
        <mxCell id="grCo7hTmxgtoTyHtFjDK-73" value="" style="edgeStyle=orthogonalEdgeStyle;rounded=0;orthogonalLoop=1;jettySize=auto;html=1;strokeColor=#23445D;labelBackgroundColor=none;fontColor=default;" parent="1" source="grCo7hTmxgtoTyHtFjDK-74" target="grCo7hTmxgtoTyHtFjDK-75" edge="1">
          <mxGeometry relative="1" as="geometry" />
        </mxCell>
        <mxCell id="grCo7hTmxgtoTyHtFjDK-74" value="27. Probar y validar el funcionamiento de controles" style="rounded=0;whiteSpace=wrap;html=1;fillColor=#182E3E;fontColor=#FFFFFF;strokeColor=#FFFFFF;labelBackgroundColor=none;" parent="1" vertex="1">
          <mxGeometry x="700" y="710" width="120" height="60" as="geometry" />
        </mxCell>
        <mxCell id="grCo7hTmxgtoTyHtFjDK-75" value="28. Documentar y registrar controles" style="rounded=0;whiteSpace=wrap;html=1;fillColor=#182E3E;fontColor=#FFFFFF;strokeColor=#FFFFFF;labelBackgroundColor=none;" parent="1" vertex="1">
          <mxGeometry x="700" y="820" width="120" height="60" as="geometry" />
        </mxCell>
      </root>
    </mxGraphModel>
  </diagram>
</mxfile>
